<?xml version="1.0" encoding="utf-8"?>
<!-- Generator: Adobe Illustrator 22.1.0, SVG Export Plug-In . SVG Version: 6.00 Build 0)  -->
<svg version="1.1" id="圖層_1" xmlns="http://www.w3.org/2000/svg" xmlns:xlink="http://www.w3.org/1999/xlink" x="0px" y="0px"
	 viewBox="0 0 50 50" style="enable-background:new 0 0 50 50;" xml:space="preserve">
<style type="text/css">
	.st0{fill:#F2F2F2;}
	.st1{fill:#CCCCCC;}
	.st2{fill:#DBDCDC;}
	.st3{fill:#9E9E9F;}
	.st4{fill:#231815;}
	.st5{fill:#F7F7F7;}
</style>
<rect y="0" class="st0" width="50" height="50"/>
<path class="st1" d="M39,38H11c-1.7,0-3-1.3-3-3V17c0-1.7,1.3-3,3-3h6c0.2,0,0.5-0.2,0.6-0.3l1.1-2.2c0.4-0.8,1.4-1.4,2.3-1.4h8
	c0.9,0,1.9,0.6,2.3,1.4l1.1,2.2c0.1,0.2,0.4,0.3,0.6,0.3h6c1.7,0,3,1.3,3,3v18C42,36.7,40.7,38,39,38z M11,16c-0.6,0-1,0.4-1,1v18
	c0,0.6,0.4,1,1,1h28c0.6,0,1-0.4,1-1V17c0-0.6-0.4-1-1-1h-6c-0.9,0-1.9-0.6-2.3-1.4l-1.1-2.2C29.5,12.2,29.2,12,29,12h-8
	c-0.2,0-0.5,0.2-0.6,0.3l-1.1,2.2C18.9,15.4,17.9,16,17,16H11z"/>
<path class="st1" d="M25,34c-5,0-9-4-9-9s4-9,9-9s9,4,9,9S30,34,25,34z M25,18c-3.9,0-7,3.1-7,7s3.1,7,7,7s7-3.1,7-7S28.9,18,25,18z
	"/>
<circle class="st1" cx="35" cy="18" r="1"/>
<path class="st1" d="M12,12h4v1h-4V12z"/>
<g>
	<g>
		<g>
			
				<ellipse transform="matrix(0.2059 -0.9786 0.9786 0.2059 -29.4282 41.6103)" class="st2" cx="10.9" cy="38.9" rx="2.9" ry="0.8"/>
			<ellipse transform="matrix(0.7325 -0.6808 0.6808 0.7325 -23.1839 16.0713)" class="st2" cx="8.9" cy="37.5" rx="3" ry="1.1"/>
		</g>
		<g>
			<ellipse transform="matrix(0.991 -0.1339 0.1339 0.991 -4.486 2.432)" class="st2" cx="15.8" cy="34.6" rx="2.9" ry="0.8"/>
			<ellipse transform="matrix(0.7325 -0.6808 0.6808 0.7325 -18.1533 18.5968)" class="st2" cx="14.6" cy="32.4" rx="3" ry="1.1"/>
		</g>
	</g>
	<ellipse transform="matrix(0.7325 -0.6808 0.6808 0.7325 -21.1755 18.3901)" class="st3" cx="12.8" cy="36.1" rx="1.8" ry="4.6"/>
	<g>
		<circle class="st4" cx="10.7" cy="32.6" r="0.5"/>
		<circle class="st4" cx="9.4" cy="33.8" r="0.5"/>
		<path class="st5" d="M10.5,32.7l0.4-0.3c0,0,0.1,0,0.1,0h0c0,0,0,0.1,0,0.1L10.5,32.7C10.5,32.8,10.5,32.8,10.5,32.7L10.5,32.7
			C10.5,32.7,10.5,32.7,10.5,32.7z"/>
		<path class="st5" d="M9.2,33.9l0.4-0.3c0,0,0.1,0,0.1,0h0c0,0,0,0.1,0,0.1L9.2,33.9C9.2,34,9.2,34,9.2,33.9L9.2,33.9
			C9.1,34,9.1,33.9,9.2,33.9z"/>
	</g>
</g>
<g>
	<path class="st3" d="M16.5,40.1c1.8,1.1,3.7,2,5.7,2.5c2,0.5,4,0.6,6.1,0.4c2-0.2,4-0.8,5.8-1.8c1.8-0.9,3.5-2.2,4.9-3.7
		c-0.6,0.9-1.3,1.7-2,2.4c-0.8,0.7-1.6,1.4-2.5,1.9c-1.8,1.1-3.9,1.8-6.1,2.1c-2.1,0.2-4.3,0.1-6.4-0.6c-1-0.3-2-0.8-2.9-1.3
		C18.1,41.5,17.2,40.9,16.5,40.1z"/>
</g>
<g>
	<path class="st1" d="M25.9,24.9c0,0.2-0.2,0.3-0.6,0.3c-0.3,0-0.5,0-0.8,0c0,1.5,0,2.3,0,2.6c0,0.2,0,0.4,0.1,0.7
		c0.1,0.3,0.1,0.5,0.1,0.5c0,0.1,0,0.2-0.1,0.3c-0.1,0.1-0.2,0.2-0.3,0.2c-0.3,0-0.5-0.1-0.5-0.4c0,0,0-0.1,0-0.1c0-0.1,0-0.2,0-0.3
		v-0.3c-0.3,0.1-0.6,0.1-1,0.1c-1.2,0-2.1-0.3-2.6-1c-0.5-0.6-0.7-1.5-0.7-2.8c0-1.2,0.3-2.3,1-3.1c0.2-0.2,0.4-0.5,0.8-0.7
		c0.5-0.3,0.9-0.4,1.3-0.4c0.2,0,0.4,0.1,0.7,0.2c0.3,0.1,0.4,0.2,0.4,0.4c0,0.2-0.1,0.3-0.3,0.3c-0.1,0-0.2,0-0.3-0.1
		c-0.1-0.1-0.3-0.1-0.4-0.1c-0.9,0-1.5,0.5-2,1.4c-0.4,0.7-0.6,1.6-0.6,2.5c0,1.9,0.8,2.9,2.5,2.9c0.5,0,0.9-0.1,1.1-0.2v-0.9
		c0-0.1,0-0.6,0-1.6c-0.2,0-0.5,0-1-0.1c-0.6,0-1-0.1-1-0.3c0-0.1,0.1-0.2,0.3-0.3c0.2-0.1,0.3-0.1,0.4-0.1c0.5,0.1,0.9,0.1,1.2,0.1
		c0,0,0.3,0,0.8,0c0.5,0,0.8,0,1,0c0.1,0,0.2,0,0.3,0.1C25.8,24.7,25.9,24.8,25.9,24.9z"/>
	<path class="st1" d="M29.1,29c0,0.1,0,0.1-0.1,0.2c-0.1,0-0.1,0.1-0.2,0.1c-0.1,0-0.1,0-0.2-0.1c-0.1-0.1-0.1-0.1-0.1-0.2
		c0,0,0-0.1,0-0.2c0-0.1,0-0.2,0-0.3c0-0.1,0-0.3,0-0.6c0-0.3,0-0.5,0-0.6c0-0.2-0.1-0.4-0.2-0.6c-0.1-0.2-0.3-0.3-0.5-0.3
		c-0.1,0-0.3,0.2-0.4,0.5c-0.1,0.3-0.1,0.5-0.1,0.8c0,0,0,0.1,0,0.3c0,0.2,0,0.3,0,0.4c0,0.5-0.1,0.7-0.2,0.7C27,29.2,27,29,27,28.6
		c0-0.1,0-0.2,0-0.4c0-0.2,0-0.4,0-0.4v-0.7c0-0.2-0.1-0.3-0.1-0.5c-0.1-0.3-0.2-0.4-0.3-0.4c-0.1,0-0.3,0.2-0.4,0.5
		c-0.2,0.3-0.3,0.7-0.3,1c0,0.1,0,0.3,0,0.6c0,0.3,0,0.5,0,0.5c0,0,0,0.1,0,0.2c0,0.1,0,0.2,0,0.2c0,0.1-0.1,0.2-0.2,0.2
		c-0.1,0-0.1,0-0.2-0.1c0-0.1-0.1-0.1-0.1-0.1c0-0.4,0-0.8,0-1.5l0-1.3c0,0,0-0.1,0-0.2c0-0.1,0-0.1,0-0.1c0-0.1,0.1-0.2,0.2-0.2
		c0.1,0,0.2,0.1,0.2,0.4c0,0.2,0,0.4,0,0.5c0.3-0.6,0.6-0.8,0.8-0.8c0.3,0,0.6,0.2,0.7,0.7c0.1-0.3,0.3-0.5,0.7-0.5
		c0.1,0,0.3,0,0.5,0.1c0.2,0.1,0.3,0.2,0.3,0.3c0.1,0.2,0.2,0.5,0.3,0.9c0,0.3,0,0.7,0.1,1.3c0,0.1,0,0.1,0,0.2
		C29.1,28.9,29.1,29,29.1,29z"/>
	<path class="st1" d="M30.5,24.9c0,0.1-0.1,0.2-0.2,0.2c0,0-0.1,0-0.2,0C30,25,29.9,25,29.8,25c-0.1,0-0.2-0.1-0.2-0.2
		c0-0.1,0.1-0.2,0.2-0.2c0.1,0,0.3,0,0.4,0.1C30.4,24.7,30.5,24.8,30.5,24.9z M30.4,26.2c0,0.1,0,0.4,0,0.9c0,0.5,0,0.8,0,0.9
		c0,0.1,0,0.2,0,0.3c0,0.1,0,0.3,0,0.3c0,0,0,0.1,0,0.1c0,0.1,0,0.1,0,0.1c0,0.2-0.1,0.3-0.2,0.3c-0.1,0-0.2,0-0.3-0.1
		c-0.1-0.1-0.1-0.2-0.1-0.3c0,0,0-0.1,0-0.2c0-0.1,0-0.1,0-0.2c0-0.1,0-0.4,0-1c0-0.5,0-0.8,0-1c0-0.1,0-0.2,0-0.3
		c0-0.1,0-0.2,0-0.3c0-0.1,0.1-0.2,0.2-0.2C30.3,25.8,30.4,25.9,30.4,26.2z"/>
</g>
</svg>
